# xmcd
#
# Track frame offsets: 
#        150
#        13387
#        28617
#        40580
#        50532
#        65060
#        81920
#        93570
#        106617
#        116130
#
# Disc length: 1699 seconds
#
# Revision: 0
# Processed by: cddbd v1.5.1PL2 Copyright (c) Steve Scherf et al.
# Submitted via: ExactAudioCopy v0.95b3
#
DISCID=8106a10a
DTITLE=Gene Watson - Greatest Hits
DYEAR=1985
DGENRE=Country
TTITLE0=Between This Time and the Next Time
TTITLE1=Maybe I Should Have Been Listening
TTITLE2=Fourteen Carat Mind
TTITLE3=Speak Softly (You're Talking To My Heart)
TTITLE4=This Dream's On Me
TTITLE5=What She Don't Know Won't Hurt Her
TTITLE6=You're Out Doing What I'm Home Doing Without
TTITLE7=Sometimes I Get Lucky and Forget
TTITLE8=Drinkin' My Way Back Home
TTITLE9=Forever Again
EXTD=
EXTT0=
EXTT1=
EXTT2=
EXTT3=
EXTT4=
EXTT5=
EXTT6=
EXTT7=
EXTT8=
EXTT9=
PLAYORDER=
